<svg width="16" height="15" viewBox="0 0 16 15" fill="none" xmlns="http://www.w3.org/2000/svg">
<path d="M5.34874 10.6719C6.09874 11.3984 6.98937 11.7617 8.02062 11.7617C9.05187 11.7617 9.93077 11.3984 10.6573 10.6719C11.4073 9.92188 11.7823 9.03125 11.7823 8C11.7823 6.96875 11.4073 6.08984 10.6573 5.36328C9.93077 4.61328 9.05187 4.23828 8.02062 4.23828C6.98937 4.23828 6.09874 4.61328 5.34874 5.36328C4.62218 6.08984 4.2589 6.96875 4.2589 8C4.2589 9.03125 4.62218 9.92188 5.34874 10.6719ZM5.77062 0.511719H10.2706L11.6417 1.98828H14.0323C14.4308 1.98828 14.7706 2.14062 15.0519 2.44531C15.3566 2.75 15.5089 3.10156 15.5089 3.5V12.5C15.5089 12.8984 15.3566 13.25 15.0519 13.5547C14.7706 13.8594 14.4308 14.0117 14.0323 14.0117H2.0089C1.61046 14.0117 1.2589 13.8594 0.954212 13.5547C0.672962 13.25 0.532337 12.8984 0.532337 12.5V3.5C0.532337 3.10156 0.672962 2.75 0.954212 2.44531C1.2589 2.14062 1.61046 1.98828 2.0089 1.98828H4.39952L5.77062 0.511719ZM6.33312 9.6875C5.86437 9.21875 5.62999 8.65625 5.62999 8C5.62999 7.34375 5.86437 6.78125 6.33312 6.3125C6.80187 5.84375 7.36437 5.60938 8.02062 5.60938C8.67687 5.60938 9.23937 5.84375 9.70812 6.3125C10.1769 6.78125 10.4112 7.34375 10.4112 8C10.4112 8.65625 10.1769 9.21875 9.70812 9.6875C9.23937 10.1562 8.67687 10.3906 8.02062 10.3906C7.36437 10.3906 6.80187 10.1562 6.33312 9.6875Z" fill="#6D767D"/>
</svg>
