<svg width="103" height="23" viewBox="0 0 103 23" fill="none" xmlns="http://www.w3.org/2000/svg">
<path d="M55.6365 13.1714C54.2002 12.0424 52.3941 11.6824 50.8182 11.4754L50.4497 11.4277C49.8913 11.3562 49.3177 11.2835 48.7606 11.1668C48.3467 11.0877 47.9409 10.9714 47.5481 10.8194C47.2966 10.7331 47.0646 10.5985 46.8652 10.423C46.6575 10.1919 46.5347 9.89732 46.5168 9.58752C46.4566 9.15465 46.5108 8.71359 46.674 8.30802C46.8891 7.8326 47.406 7.50269 48.255 7.29822C48.904 7.14142 49.5907 7.1502 50.2535 7.1502H54.6127C55.1058 7.1502 55.6189 7.1502 56.073 6.80148C56.2852 6.63084 56.4544 6.41308 56.5673 6.16557C56.6801 5.91807 56.7333 5.64769 56.7226 5.37602C56.712 5.10435 56.6378 4.83892 56.506 4.60094C56.3742 4.36296 56.1884 4.15901 55.9635 4.0054C55.5183 3.71563 55.024 3.71563 54.5876 3.71563H51.2748H50.705C49.8246 3.70936 48.9102 3.70308 48.0185 3.84107C46.7432 4.03299 45.7244 4.42813 44.9057 5.04656C44.0591 5.68613 43.436 6.57533 43.1247 7.58799C42.8309 8.60852 42.7929 9.68541 43.0141 10.724C43.1765 11.587 43.6006 12.3795 44.229 12.9945C44.7799 13.5151 45.537 13.9328 46.542 14.2677C47.4555 14.55 48.3958 14.7375 49.3479 14.8272C49.5223 14.8473 49.6993 14.8657 49.8787 14.8824C51.0559 15.0003 52.2684 15.1245 53.1601 15.8433C53.4683 16.0826 53.6782 16.4262 53.7499 16.8092C53.8193 17.2466 53.7813 17.6942 53.6393 18.1137C53.5357 18.4316 53.3297 18.7064 53.0532 18.8952C52.7157 19.1038 52.3453 19.2539 51.9577 19.3393C51.0559 19.5664 50.0912 19.5588 49.1593 19.5513H48.6398H45.1233C44.8516 19.5471 44.5828 19.6081 44.3397 19.729C44.0965 19.8499 43.886 20.0272 43.7258 20.2461C43.5656 20.465 43.4604 20.7191 43.4191 20.9869C43.3777 21.2548 43.4014 21.5286 43.4882 21.7854C43.5629 22.0431 43.6992 22.2789 43.8854 22.4725C44.0716 22.6661 44.3022 22.8117 44.5573 22.8968C44.7949 22.9656 45.042 22.9965 45.2893 22.9884H45.4981H45.6905H50.012C51.9665 22.9884 54.414 22.7689 55.9925 21.0842C56.6939 20.3235 57.1493 19.3697 57.2992 18.3471C57.4766 17.2281 57.4112 16.1569 57.1106 15.2537C56.838 14.4287 56.3248 13.7037 55.6365 13.1714Z" fill="#292C33"/>
<path d="M67.2341 7.15019C67.4616 7.15515 67.6877 7.11413 67.8989 7.02958C68.11 6.94504 68.3018 6.81873 68.4627 6.65826C68.6236 6.4978 68.7502 6.3065 68.835 6.09591C68.9198 5.88531 68.9609 5.65978 68.9559 5.4329C68.96 5.19964 68.9147 4.96815 68.8231 4.75351C68.7314 4.53888 68.5954 4.34594 68.4239 4.18727C68.0809 3.87503 67.6305 3.70656 67.1662 3.71687H63.3716V1.81894C63.3719 1.58517 63.3252 1.35371 63.2343 1.13825C63.1433 0.922791 63.01 0.727707 62.8421 0.564534C62.6781 0.397922 62.4823 0.26562 62.2664 0.175371C62.0504 0.0851226 61.8186 0.0387396 61.5844 0.0389366C61.3469 0.0365227 61.1115 0.0839681 60.8935 0.178192C60.6755 0.272416 60.4798 0.411311 60.3192 0.585859C60.0015 0.920421 59.8258 1.36446 59.8286 1.82522V16.4052C59.8286 18.4625 60.289 20.0794 61.1945 21.2096C62.1466 22.3975 63.7238 22.9997 65.8846 22.9997H67.1674C67.4042 23.0046 67.6395 22.9621 67.8594 22.8746C68.0794 22.7871 68.2794 22.6564 68.4478 22.4904C68.6121 22.3279 68.742 22.1341 68.8298 21.9206C68.9175 21.707 68.9612 21.478 68.9584 21.2473C68.9613 20.7859 68.7851 20.3413 68.4667 20.0066C68.3004 19.8302 68.0988 19.6904 67.8751 19.5964C67.6513 19.5024 67.4102 19.4563 67.1674 19.461H65.8846C64.9061 19.461 64.2495 19.2465 63.9364 18.8212C63.559 18.3195 63.3742 17.5028 63.3742 16.404V7.15019H67.2341Z" fill="#292C33"/>
<path d="M83.4234 5.42036C82.9243 4.88473 82.3197 4.45768 81.6475 4.16595C80.9368 3.86039 80.17 3.70616 79.3961 3.71311H73.1189C72.8914 3.70814 72.6653 3.74917 72.4541 3.83371C72.243 3.91826 72.0512 4.04457 71.8903 4.20503C71.7294 4.3655 71.6028 4.5568 71.518 4.76739C71.4332 4.97799 71.3921 5.20352 71.3971 5.4304C71.3971 6.47407 72.1001 7.14769 73.1881 7.14769H79.3949C80.0401 7.14769 80.4828 7.34839 80.8337 7.80123C81.2274 8.31052 81.4198 8.93773 81.4198 9.71923V11.3587H76.2418C75.4509 11.3554 74.6678 11.5147 73.9414 11.8266C73.2479 12.1245 72.6168 12.5501 72.0813 13.081C71.401 13.7533 70.898 14.583 70.6171 15.4961C70.3363 16.4092 70.2862 17.3775 70.4715 18.3146C70.6568 19.2517 71.0716 20.1285 71.679 20.8669C72.2864 21.6054 73.0675 22.1825 73.9528 22.5468C74.6778 22.8448 75.4551 22.9962 76.2393 22.9921H82.7241C83.0193 22.9955 83.3123 22.94 83.5857 22.8288C83.8592 22.7177 84.1076 22.5532 84.3164 22.3449C84.5252 22.1367 84.6901 21.8889 84.8016 21.6162C84.913 21.3435 84.9687 21.0513 84.9653 20.7568V9.6126C84.9696 8.82725 84.8337 8.04739 84.5641 7.3095C84.3113 6.61151 83.9237 5.9697 83.4234 5.42036ZM81.4198 14.8284V19.4873H76.2405C75.924 19.4898 75.6101 19.4292 75.3174 19.3092C75.039 19.198 74.7861 19.0315 74.5741 18.82C74.3589 18.6067 74.1888 18.3524 74.0741 18.0722C73.9594 17.7921 73.9023 17.4918 73.9062 17.1892C73.9037 16.8735 73.9644 16.5605 74.0848 16.2685C74.1963 15.9908 74.3632 15.7386 74.5753 15.5271C74.7955 15.3098 75.0544 15.1354 75.3388 15.0128C75.623 14.8872 75.9309 14.8235 76.2418 14.8259H81.4198V14.8284Z" fill="#292C33"/>
<path d="M89.6264 0.0327142C89.3894 0.0261478 89.1535 0.0678529 88.9332 0.155281C88.7128 0.24271 88.5127 0.374026 88.3449 0.541207C88.1772 0.708388 88.0454 0.907923 87.9576 1.12762C87.8698 1.34732 87.8278 1.58257 87.8342 1.81899V21.1996C87.8308 21.6605 88.0066 22.1047 88.3247 22.439C88.4908 22.6161 88.6925 22.7563 88.9165 22.8506C89.1406 22.9448 89.3821 22.9909 89.6252 22.9859C89.8594 22.9865 90.0914 22.9403 90.3074 22.8501C90.5234 22.7598 90.7191 22.6273 90.8829 22.4603C91.0555 22.2854 91.1911 22.0777 91.2816 21.8495C91.3721 21.6213 91.4157 21.3772 91.4099 21.1319V1.81899C91.4145 1.57657 91.3681 1.33587 91.2736 1.11245C91.1792 0.889036 91.0388 0.687864 90.8615 0.521934C90.528 0.206921 90.0858 0.0317794 89.6264 0.0327142Z" fill="#292C33"/>
<path d="M102.243 20.1359L96.7741 13.3056L101.669 6.82407C101.81 6.63883 101.912 6.42782 101.971 6.2031C102.029 5.97838 102.043 5.74434 102.011 5.51434C101.979 5.28435 101.902 5.0629 101.784 4.86265C101.666 4.6624 101.51 4.48726 101.324 4.34724C101.138 4.20722 100.927 4.10505 100.701 4.04658C100.476 3.9881 100.241 3.97446 100.011 4.00644C99.7801 4.03841 99.5581 4.11537 99.3573 4.23293C99.1565 4.35049 98.9809 4.50633 98.8406 4.69157L93.1167 12.2732C92.8796 12.5863 92.7538 12.9693 92.7593 13.3616C92.7647 13.7539 92.9011 14.1332 93.1469 14.4396L99.4732 22.3424C99.7725 22.6892 100.195 22.9067 100.652 22.9492C101.109 22.9917 101.564 22.8558 101.923 22.5702C102.281 22.2845 102.514 21.8713 102.574 21.4176C102.633 20.9638 102.513 20.5048 102.24 20.1371L102.243 20.1359Z" fill="#292C33"/>
<path d="M20.6631 22.9945H2.33558C1.71615 22.9945 1.12208 22.7491 0.684077 22.3123C0.24607 21.8754 0 21.2829 0 20.6651C0 20.0473 0.24607 19.4548 0.684077 19.0179C1.12208 18.5811 1.71615 18.3357 2.33558 18.3357H20.6631C21.2825 18.3357 21.8766 18.5811 22.3146 19.0179C22.7526 19.4548 22.9987 20.0473 22.9987 20.6651C22.9987 21.2829 22.7526 21.8754 22.3146 22.3123C21.8766 22.7491 21.2825 22.9945 20.6631 22.9945Z" fill="#67C083"/>
<path d="M20.6631 4.65888H2.33558C1.71615 4.65888 1.12208 4.41346 0.684077 3.9766C0.24607 3.53975 0 2.94725 0 2.32944C0 1.71163 0.24607 1.11913 0.684077 0.682277C1.12208 0.245422 1.71615 0 2.33558 0L20.6631 0C21.2825 0 21.8766 0.245422 22.3146 0.682277C22.7526 1.11913 22.9987 1.71163 22.9987 2.32944C22.9987 2.94725 22.7526 3.53975 22.3146 3.9766C21.8766 4.41346 21.2825 4.65888 20.6631 4.65888Z" fill="#67C083"/>
<path d="M11.4993 10.7704H2.33558C1.71615 10.7704 1.12208 10.525 0.684077 10.0881C0.24607 9.65129 0 9.05879 0 8.44098H0C0 8.13507 0.0604117 7.83216 0.177786 7.54954C0.29516 7.26692 0.467198 7.01013 0.684077 6.79382C0.900956 6.57751 1.15843 6.40592 1.4418 6.28886C1.72516 6.17179 2.02887 6.11154 2.33558 6.11154H11.4993V10.7704Z" fill="#67C083"/>
<path d="M20.663 16.8832H11.4993V12.2231H20.663C20.9697 12.2229 21.2735 12.283 21.5569 12.3999C21.8403 12.5168 22.0979 12.6883 22.3149 12.9044C22.5319 13.1206 22.7041 13.3773 22.8216 13.6599C22.9391 13.9425 22.9997 14.2453 22.9998 14.5512C23.0002 14.8575 22.94 15.1607 22.8227 15.4437C22.7054 15.7267 22.5333 15.9839 22.3162 16.2005C22.0992 16.4171 21.8414 16.5888 21.5578 16.706C21.2741 16.8231 20.97 16.8834 20.663 16.8832Z" fill="#67C083"/>
</svg>
