<svg width="17" height="14" viewBox="0 0 17 14" fill="none" xmlns="http://www.w3.org/2000/svg">
<path d="M15.5075 4.19818V1.70273C15.5075 0.764585 14.7429 0 13.8048 0H1.70273C0.764585 0 0 0.764585 0 1.70273V11.83C0 12.7681 0.764585 13.5327 1.70273 13.5327H13.8048C14.7429 13.5327 15.5075 12.7681 15.5075 11.83V9.31575C16.122 9.12812 16.5723 8.55585 16.5723 7.88039V5.63354C16.5723 4.95808 16.122 4.38581 15.5075 4.19818ZM15.4465 7.88039C15.4465 8.08209 15.2729 8.25565 15.0712 8.25565H9.17503C8.97332 8.25565 8.79977 8.08209 8.79977 7.88039V5.63354C8.79977 5.43184 8.97332 5.25828 9.17503 5.25828H15.0666C15.2683 5.25828 15.4418 5.43184 15.4418 5.63354V7.88039H15.4465ZM13.8048 12.4069H1.70273C1.38376 12.4069 1.12577 12.1489 1.12577 11.83V1.70273C1.12577 1.38376 1.38376 1.12577 1.70273 1.12577H13.8048C14.1237 1.12577 14.3817 1.38376 14.3817 1.70273V4.13251H9.17503C8.34946 4.13251 7.674 4.80798 7.674 5.63354V7.88039C7.674 8.70595 8.34946 9.38142 9.17503 9.38142H14.3817V11.83C14.3817 12.1442 14.1237 12.4069 13.8048 12.4069Z" fill="#B0B7BC"/>
<path d="M10.3291 5.92053C9.86 5.92053 9.48006 6.30048 9.48006 6.76955C9.48006 7.23862 9.86 7.61857 10.3291 7.61857C10.7981 7.61857 11.1781 7.23862 11.1781 6.76955C11.1781 6.30048 10.7981 5.92053 10.3291 5.92053Z" fill="#B0B7BC"/>
</svg>
